<?xml version="1.0" encoding="utf-8" standalone="no"?>
<!DOCTYPE svg PUBLIC "-//W3C//DTD SVG 1.1//EN"
  "http://www.w3.org/Graphics/SVG/1.1/DTD/svg11.dtd">
<!-- Created with matplotlib (http://matplotlib.org/) -->
<svg height="720pt" version="1.1" viewBox="0 0 864 720" width="864pt" xmlns="http://www.w3.org/2000/svg" xmlns:xlink="http://www.w3.org/1999/xlink">
 <defs>
  <style type="text/css">
*{stroke-linecap:butt;stroke-linejoin:round;}
  </style>
 </defs>
 <g id="figure_1">
  <g id="patch_1">
   <path d="
M0 720
L864 720
L864 0
L0 0
z
" style="fill:#ffffff;"/>
  </g>
  <g id="axes_1">
   <g id="patch_2">
    <path d="
M108 648
L777.6 648
L777.6 72
L108 72
z
" style="fill:#ffffff;"/>
   </g>
   <g id="line2d_1">
    <path clip-path="url(#p20bdb09884)" d="
M335.853 152.15
L191.831 236.6
L151.825 274.525" style="fill:none;stroke:#9696ff;stroke-linecap:square;stroke-width:4;"/>
    <defs>
     <path d="
M-5.32907e-16 11.3137
L6.78823 0
L3.55271e-16 -11.3137
L-6.78823 -1.77636e-15
z
" id="m79f3c46b2e" style="stroke:#000000;stroke-linejoin:miter;stroke-width:1.5;"/>
    </defs>
    <g clip-path="url(#p20bdb09884)">
     <use style="fill:#9696ff;stroke:#000000;stroke-linejoin:miter;stroke-width:1.5;" x="335.852828713" xlink:href="#m79f3c46b2e" y="152.149873748"/>
     <use style="fill:#9696ff;stroke:#000000;stroke-linejoin:miter;stroke-width:1.5;" x="191.830929" xlink:href="#m79f3c46b2e" y="236.600472428"/>
     <use style="fill:#9696ff;stroke:#000000;stroke-linejoin:miter;stroke-width:1.5;" x="151.824845746" xlink:href="#m79f3c46b2e" y="274.525046836"/>
    </g>
   </g>
   <g id="line2d_2">
    <path clip-path="url(#p20bdb09884)" d="
M332.58 162.315
L188.194 239.337
L122.548 292.51" style="fill:none;stroke:#ff9600;stroke-linecap:square;stroke-width:4;"/>
    <defs>
     <path d="
M0 8
C2.12162 8 4.15664 7.15707 5.65685 5.65685
C7.15707 4.15664 8 2.12162 8 0
C8 -2.12162 7.15707 -4.15664 5.65685 -5.65685
C4.15664 -7.15707 2.12162 -8 0 -8
C-2.12162 -8 -4.15664 -7.15707 -5.65685 -5.65685
C-7.15707 -4.15664 -8 -2.12162 -8 0
C-8 2.12162 -7.15707 4.15664 -5.65685 5.65685
C-4.15664 7.15707 -2.12162 8 0 8
z
" id="m2a914b3d6a" style="stroke:#000000;stroke-width:1.5;"/>
    </defs>
    <g clip-path="url(#p20bdb09884)">
     <use style="fill:#ff9600;stroke:#000000;stroke-width:1.5;" x="332.579603719" xlink:href="#m2a914b3d6a" y="162.315223589"/>
     <use style="fill:#ff9600;stroke:#000000;stroke-width:1.5;" x="188.19401234" xlink:href="#m2a914b3d6a" y="239.337297385"/>
     <use style="fill:#ff9600;stroke:#000000;stroke-width:1.5;" x="122.547666638" xlink:href="#m2a914b3d6a" y="292.509896555"/>
    </g>
   </g>
   <g id="line2d_3">
    <path clip-path="url(#p20bdb09884)" d="
M411.137 131.819
L207.652 236.209
L147.097 280.39" style="fill:none;stroke:#969600;stroke-linecap:square;stroke-width:4;"/>
    <defs>
     <path d="
M-9.79717e-16 8
L8 -8
L-8 -8
z
" id="m9202b17d64" style="stroke:#000000;stroke-linejoin:miter;stroke-width:1.5;"/>
    </defs>
    <g clip-path="url(#p20bdb09884)">
     <use style="fill:#969600;stroke:#000000;stroke-linejoin:miter;stroke-width:1.5;" x="411.137003563" xlink:href="#m9202b17d64" y="131.819174065"/>
     <use style="fill:#969600;stroke:#000000;stroke-linejoin:miter;stroke-width:1.5;" x="207.651516468" xlink:href="#m9202b17d64" y="236.209497434"/>
     <use style="fill:#969600;stroke:#000000;stroke-linejoin:miter;stroke-width:1.5;" x="147.096854089" xlink:href="#m9202b17d64" y="280.389671744"/>
    </g>
   </g>
   <g id="line2d_4">
    <path clip-path="url(#p20bdb09884)" d="
M563.888 103.278
L312.031 169.353
L166.373 245.202" style="fill:none;stroke:#969696;stroke-linecap:square;stroke-width:4;"/>
    <defs>
     <path d="
M-8 -4.89859e-16
L8 8
L8 -8
z
" id="mec6b106c3b" style="stroke:#000000;stroke-linejoin:miter;stroke-width:1.5;"/>
    </defs>
    <g clip-path="url(#p20bdb09884)">
     <use style="fill:#969696;stroke:#000000;stroke-linejoin:miter;stroke-width:1.5;" x="563.887503259" xlink:href="#mec6b106c3b" y="103.277999511"/>
     <use style="fill:#969696;stroke:#000000;stroke-linejoin:miter;stroke-width:1.5;" x="312.031024594" xlink:href="#mec6b106c3b" y="169.352773479"/>
     <use style="fill:#969696;stroke:#000000;stroke-linejoin:miter;stroke-width:1.5;" x="166.372512384" xlink:href="#mec6b106c3b" y="245.201922294"/>
    </g>
   </g>
   <g id="line2d_5">
    <path clip-path="url(#p20bdb09884)" d="
M763.052 140.909
L586.029 325.258
L320.396 616.722" style="fill:none;stroke:#005500;stroke-linecap:square;stroke-width:4;"/>
    <defs>
     <path d="
M8 1.46958e-15
L-8 -8
L-8 8
z
" id="m15d7f748dd" style="stroke:#000000;stroke-linejoin:miter;stroke-width:1.5;"/>
    </defs>
    <g clip-path="url(#p20bdb09884)">
     <use style="fill:#005500;stroke:#000000;stroke-linejoin:miter;stroke-width:1.5;" x="763.052333362" xlink:href="#m15d7f748dd" y="140.908560723"/>
     <use style="fill:#005500;stroke:#000000;stroke-linejoin:miter;stroke-width:1.5;" x="586.029051881" xlink:href="#m15d7f748dd" y="325.257962043"/>
     <use style="fill:#005500;stroke:#000000;stroke-linejoin:miter;stroke-width:1.5;" x="320.39593291" xlink:href="#m15d7f748dd" y="616.722000489"/>
    </g>
   </g>
   <g id="matplotlib.axis_1">
    <g id="xtick_1">
     <g id="line2d_6">
      <path clip-path="url(#p20bdb09884)" d="
M242.566 648
L242.566 72" style="fill:none;opacity:0.7;stroke:#000000;stroke-dasharray:1.000000,3.000000;stroke-dashoffset:0.0;stroke-width:2;"/>
     </g>
     <g id="line2d_7">
      <defs>
       <path d="
M0 0
L0 -4" id="m93b0483c22" style="stroke:#000000;stroke-width:0.5;"/>
      </defs>
      <g>
       <use style="stroke:#000000;stroke-width:0.5;" x="242.565916399" xlink:href="#m93b0483c22" y="648.0"/>
      </g>
     </g>
     <g id="line2d_8">
      <defs>
       <path d="
M0 0
L0 4" id="m741efc42ff" style="stroke:#000000;stroke-width:0.5;"/>
      </defs>
      <g>
       <use style="stroke:#000000;stroke-width:0.5;" x="242.565916399" xlink:href="#m741efc42ff" y="72.0"/>
      </g>
     </g>
     <g id="text_1">
      <!-- 0.2 -->
      <defs>
       <path d="
M12.7969 55.5156
L7.32812 55.5156
L7.32812 68.5
Q12.5469 71.2969 17.8438 72.75
Q23.1406 74.2188 28.2188 74.2188
Q39.5938 74.2188 46.1875 68.7031
Q52.7812 63.1875 52.7812 53.7188
Q52.7812 43.0156 37.8438 28.125
Q36.6719 27 36.0781 26.4219
L17.6719 8.01562
L48.0938 8.01562
L48.0938 17
L53.8125 17
L53.8125 0
L6.78125 0
L6.78125 5.32812
L28.9062 27.3906
Q36.2344 34.7188 39.3594 40.8438
Q42.4844 46.9688 42.4844 53.7188
Q42.4844 61.0781 38.6406 65.2344
Q34.8125 69.3906 28.0781 69.3906
Q21.0938 69.3906 17.2812 65.9219
Q13.4844 62.4531 12.7969 55.5156" id="DejaVuSerif-32"/>
       <path d="
M31.7812 3.42188
Q39.2656 3.42188 42.9688 11.625
Q46.6875 19.8281 46.6875 36.375
Q46.6875 52.9844 42.9688 61.1875
Q39.2656 69.3906 31.7812 69.3906
Q24.3125 69.3906 20.5938 61.1875
Q16.8906 52.9844 16.8906 36.375
Q16.8906 19.8281 20.5938 11.625
Q24.3125 3.42188 31.7812 3.42188
M31.7812 -1.42188
Q19.9219 -1.42188 13.25 8.53125
Q6.59375 18.5 6.59375 36.375
Q6.59375 54.2969 13.25 64.25
Q19.9219 74.2188 31.7812 74.2188
Q43.7031 74.2188 50.3438 64.25
Q56.9844 54.2969 56.9844 36.375
Q56.9844 18.5 50.3438 8.53125
Q43.7031 -1.42188 31.7812 -1.42188" id="DejaVuSerif-30"/>
       <path d="
M9.42188 5.07812
Q9.42188 7.8125 11.2812 9.71875
Q13.1406 11.625 15.9219 11.625
Q18.6094 11.625 20.5 9.71875
Q22.4062 7.8125 22.4062 5.07812
Q22.4062 2.39062 20.5 0.484375
Q18.6094 -1.42188 15.9219 -1.42188
Q13.1406 -1.42188 11.2812 0.453125
Q9.42188 2.34375 9.42188 5.07812" id="DejaVuSerif-2e"/>
      </defs>
      <g transform="translate(221.172166399 674.7953125)scale(0.3 -0.3)">
       <use xlink:href="#DejaVuSerif-30"/>
       <use x="63.623046875" xlink:href="#DejaVuSerif-2e"/>
       <use x="95.41015625" xlink:href="#DejaVuSerif-32"/>
      </g>
     </g>
    </g>
    <g id="xtick_2">
     <g id="line2d_9">
      <path clip-path="url(#p20bdb09884)" d="
M388.043 648
L388.043 72" style="fill:none;opacity:0.7;stroke:#000000;stroke-dasharray:1.000000,3.000000;stroke-dashoffset:0.0;stroke-width:2;"/>
     </g>
     <g id="line2d_10">
      <g>
       <use style="stroke:#000000;stroke-width:0.5;" x="388.042582776" xlink:href="#m93b0483c22" y="648.0"/>
      </g>
     </g>
     <g id="line2d_11">
      <g>
       <use style="stroke:#000000;stroke-width:0.5;" x="388.042582776" xlink:href="#m741efc42ff" y="72.0"/>
      </g>
     </g>
     <g id="text_2">
      <!-- 0.4 -->
      <defs>
       <path d="
M34.9062 24.7031
L34.9062 63.4844
L10.0156 24.7031
z

M56.3906 0
L23.1875 0
L23.1875 5.17188
L34.9062 5.17188
L34.9062 19.4844
L3.07812 19.4844
L3.07812 24.8125
L35.0156 74.2188
L44.6719 74.2188
L44.6719 24.7031
L58.5938 24.7031
L58.5938 19.4844
L44.6719 19.4844
L44.6719 5.17188
L56.3906 5.17188
z
" id="DejaVuSerif-34"/>
      </defs>
      <g transform="translate(365.931645276 674.7953125)scale(0.3 -0.3)">
       <use xlink:href="#DejaVuSerif-30"/>
       <use x="63.623046875" xlink:href="#DejaVuSerif-2e"/>
       <use x="95.41015625" xlink:href="#DejaVuSerif-34"/>
      </g>
     </g>
    </g>
    <g id="xtick_3">
     <g id="line2d_12">
      <path clip-path="url(#p20bdb09884)" d="
M533.519 648
L533.519 72" style="fill:none;opacity:0.7;stroke:#000000;stroke-dasharray:1.000000,3.000000;stroke-dashoffset:0.0;stroke-width:2;"/>
     </g>
     <g id="line2d_13">
      <g>
       <use style="stroke:#000000;stroke-width:0.5;" x="533.519249153" xlink:href="#m93b0483c22" y="648.0"/>
      </g>
     </g>
     <g id="line2d_14">
      <g>
       <use style="stroke:#000000;stroke-width:0.5;" x="533.519249153" xlink:href="#m741efc42ff" y="72.0"/>
      </g>
     </g>
     <g id="text_3">
      <!-- 0.6 -->
      <defs>
       <path d="
M32.7188 3.42188
Q39.5938 3.42188 43.2969 8.46875
Q47.0156 13.5312 47.0156 23
Q47.0156 32.4688 43.2969 37.5156
Q39.5938 42.5781 32.7188 42.5781
Q25.7344 42.5781 22.0625 37.6875
Q18.4062 32.8125 18.4062 23.5781
Q18.4062 13.875 22.1094 8.64062
Q25.8281 3.42188 32.7188 3.42188
M16.7969 40.1406
Q20.125 43.7969 24.3125 45.5938
Q28.5156 47.4062 33.7969 47.4062
Q44.6719 47.4062 51 40.8594
Q57.3281 34.3281 57.3281 23
Q57.3281 11.9219 50.5156 5.25
Q43.7031 -1.42188 32.3281 -1.42188
Q19.9688 -1.42188 13.3281 7.78125
Q6.6875 17 6.6875 34.0781
Q6.6875 53.2188 14.5469 63.7188
Q22.4062 74.2188 36.7188 74.2188
Q40.5781 74.2188 44.8281 73.4844
Q49.0781 72.75 53.5156 71.2969
L53.5156 59.2812
L48 59.2812
Q47.4062 64.2031 44.2344 66.7969
Q41.0625 69.3906 35.6875 69.3906
Q26.2188 69.3906 21.5781 62.2031
Q16.9375 55.0312 16.7969 40.1406" id="DejaVuSerif-36"/>
      </defs>
      <g transform="translate(511.598155403 674.7953125)scale(0.3 -0.3)">
       <use xlink:href="#DejaVuSerif-30"/>
       <use x="63.623046875" xlink:href="#DejaVuSerif-2e"/>
       <use x="95.41015625" xlink:href="#DejaVuSerif-36"/>
      </g>
     </g>
    </g>
    <g id="xtick_4">
     <g id="line2d_15">
      <path clip-path="url(#p20bdb09884)" d="
M678.996 648
L678.996 72" style="fill:none;opacity:0.7;stroke:#000000;stroke-dasharray:1.000000,3.000000;stroke-dashoffset:0.0;stroke-width:2;"/>
     </g>
     <g id="line2d_16">
      <g>
       <use style="stroke:#000000;stroke-width:0.5;" x="678.99591553" xlink:href="#m93b0483c22" y="648.0"/>
      </g>
     </g>
     <g id="line2d_17">
      <g>
       <use style="stroke:#000000;stroke-width:0.5;" x="678.99591553" xlink:href="#m741efc42ff" y="72.0"/>
      </g>
     </g>
     <g id="text_4">
      <!-- 0.8 -->
      <defs>
       <path d="
M46.5781 19.9219
Q46.5781 27.7344 42.6875 32.0469
Q38.8125 36.375 31.7812 36.375
Q24.75 36.375 20.875 32.0469
Q17 27.7344 17 19.9219
Q17 12.0625 20.875 7.73438
Q24.75 3.42188 31.7812 3.42188
Q38.8125 3.42188 42.6875 7.73438
Q46.5781 12.0625 46.5781 19.9219
M44.5781 55.3281
Q44.5781 61.9688 41.2031 65.6719
Q37.8438 69.3906 31.7812 69.3906
Q25.7812 69.3906 22.3906 65.6719
Q19 61.9688 19 55.3281
Q19 48.6406 22.3906 44.9219
Q25.7812 41.2188 31.7812 41.2188
Q37.8438 41.2188 41.2031 44.9219
Q44.5781 48.6406 44.5781 55.3281
M39.3125 38.8125
Q47.6094 37.7031 52.25 32.6875
Q56.8906 27.6875 56.8906 19.9219
Q56.8906 9.67188 50.3906 4.125
Q43.8906 -1.42188 31.7812 -1.42188
Q19.7344 -1.42188 13.2031 4.125
Q6.6875 9.67188 6.6875 19.9219
Q6.6875 27.6875 11.3281 32.6875
Q15.9688 37.7031 24.3125 38.8125
Q16.9375 40.1406 13 44.4062
Q9.07812 48.6875 9.07812 55.3281
Q9.07812 64.1094 15.125 69.1562
Q21.1875 74.2188 31.7812 74.2188
Q42.3906 74.2188 48.4375 69.1562
Q54.5 64.1094 54.5 55.3281
Q54.5 48.6875 50.5625 44.4062
Q46.625 40.1406 39.3125 38.8125" id="DejaVuSerif-38"/>
      </defs>
      <g transform="translate(657.14044678 674.7953125)scale(0.3 -0.3)">
       <use xlink:href="#DejaVuSerif-30"/>
       <use x="63.623046875" xlink:href="#DejaVuSerif-2e"/>
       <use x="95.41015625" xlink:href="#DejaVuSerif-38"/>
      </g>
     </g>
    </g>
    <g id="text_5">
     <!-- Reject Rate -->
     <defs>
      <path d="
M54.2031 25
L15.4844 25
L15.4844 24.6094
Q15.4844 14.1094 19.4375 8.76562
Q23.3906 3.42188 31.1094 3.42188
Q37.0156 3.42188 40.7969 6.51562
Q44.5781 9.625 46.0938 15.7188
L53.3281 15.7188
Q51.1719 7.17188 45.375 2.875
Q39.5938 -1.42188 30.1719 -1.42188
Q18.7969 -1.42188 11.8906 6.07812
Q4.98438 13.5781 4.98438 25.9844
Q4.98438 38.2812 11.7656 45.7969
Q18.5625 53.3281 29.5938 53.3281
Q41.3594 53.3281 47.6562 46.0625
Q53.9531 38.8125 54.2031 25
M43.6094 30.1719
Q43.3125 39.2656 39.7656 43.875
Q36.2344 48.4844 29.5938 48.4844
Q23.3906 48.4844 19.8281 43.8438
Q16.2656 39.2031 15.4844 30.1719
z
" id="DejaVuSerif-65"/>
      <path d="
M47.9062 36.1875
Q51.3125 35.25 53.7812 33.0312
Q56.25 30.8125 58.2031 26.8125
L68.7969 5.17188
L77.6875 5.17188
L77.6875 0
L60.5 0
L49.125 23.1875
Q45.8438 29.9375 43.1094 31.9062
Q40.375 33.8906 35.5938 33.8906
L24.7031 33.8906
L24.7031 5.17188
L35.0156 5.17188
L35.0156 0
L5.51562 0
L5.51562 5.17188
L14.7969 5.17188
L14.7969 67.6719
L5.51562 67.6719
L5.51562 72.9062
L42.4844 72.9062
Q53.125 72.9062 58.9062 67.8281
Q64.7031 62.75 64.7031 53.4219
Q64.7031 45.9062 60.4688 41.5781
Q56.25 37.25 47.9062 36.1875
M24.7031 39.1094
L39.1094 39.1094
Q46.4844 39.1094 50 42.5938
Q53.5156 46.0938 53.5156 53.4219
Q53.5156 60.75 50 64.2031
Q46.4844 67.6719 39.1094 67.6719
L24.7031 67.6719
z
" id="DejaVuSerif-52"/>
      <path d="
M39.7969 16.3125
L39.7969 27.2969
L28.2188 27.2969
Q21.5312 27.2969 18.25 24.4062
Q14.9844 21.5312 14.9844 15.5781
Q14.9844 10.1562 18.2969 6.98438
Q21.625 3.8125 27.2969 3.8125
Q32.9062 3.8125 36.3438 7.28125
Q39.7969 10.75 39.7969 16.3125
M48.7812 32.4219
L48.7812 5.17188
L56.7812 5.17188
L56.7812 0
L39.7969 0
L39.7969 5.60938
Q36.8125 2 32.9062 0.28125
Q29 -1.42188 23.7812 -1.42188
Q15.1406 -1.42188 10.0625 3.17188
Q4.98438 7.76562 4.98438 15.5781
Q4.98438 23.6406 10.7969 28.0781
Q16.6094 32.5156 27.2031 32.5156
L39.7969 32.5156
L39.7969 36.0781
Q39.7969 42 36.2031 45.2344
Q32.625 48.4844 26.125 48.4844
Q20.75 48.4844 17.5781 46.0469
Q14.4062 43.6094 13.625 38.8125
L8.98438 38.8125
L8.98438 49.3125
Q13.6719 51.3125 18.0938 52.3125
Q22.5156 53.3281 26.7031 53.3281
Q37.5 53.3281 43.1406 47.9688
Q48.7812 42.625 48.7812 32.4219" id="DejaVuSerif-61"/>
      <path d="
M51.4219 15.5781
Q49.5156 7.28125 44.0938 2.92188
Q38.6719 -1.42188 30.0781 -1.42188
Q18.75 -1.42188 11.8594 6.07812
Q4.98438 13.5781 4.98438 25.9844
Q4.98438 38.4219 11.8594 45.875
Q18.75 53.3281 30.0781 53.3281
Q35.0156 53.3281 39.8906 52.1719
Q44.7812 51.0312 49.7031 48.6875
L49.7031 35.4062
L44.4844 35.4062
Q43.4531 42.2344 40.0156 45.3594
Q36.5781 48.4844 30.1719 48.4844
Q22.9062 48.4844 19.1875 42.8438
Q15.4844 37.2031 15.4844 25.9844
Q15.4844 14.75 19.1719 9.07812
Q22.8594 3.42188 30.1719 3.42188
Q35.9844 3.42188 39.4531 6.4375
Q42.9219 9.46875 44.1875 15.5781
z
" id="DejaVuSerif-63"/>
      <path d="
M10.7969 46.6875
L2.875 46.6875
L2.875 51.9062
L10.7969 51.9062
L10.7969 68.0156
L19.8281 68.0156
L19.8281 51.9062
L36.7188 51.9062
L36.7188 46.6875
L19.8281 46.6875
L19.8281 13.7188
Q19.8281 7.125 21.0938 5.26562
Q22.3594 3.42188 25.7812 3.42188
Q29.2969 3.42188 30.9062 5.48438
Q32.5156 7.5625 32.625 12.2031
L39.4062 12.2031
Q39.0156 5.125 35.5469 1.84375
Q32.0781 -1.42188 25 -1.42188
Q17.2344 -1.42188 14.0156 2.01562
Q10.7969 5.46875 10.7969 13.7188
z
" id="DejaVuSerif-74"/>
      <path d="
M10.0156 68.0156
Q10.0156 70.2656 11.6406 71.9219
Q13.2812 73.5781 15.5781 73.5781
Q17.8281 73.5781 19.4531 71.9219
Q21.0938 70.2656 21.0938 68.0156
Q21.0938 65.7188 19.5 64.1094
Q17.9219 62.5 15.5781 62.5
Q13.2812 62.5 11.6406 64.1094
Q10.0156 65.7188 10.0156 68.0156
M12.2031 46.6875
L3.71875 46.6875
L3.71875 51.9062
L21.1875 51.9062
L21.1875 -5.07812
Q21.1875 -13.0938 16.4219 -17.6562
Q11.6719 -22.2188 3.32812 -22.2188
Q-0.203125 -22.2188 -3.39062 -21.4062
Q-6.59375 -20.6094 -9.625 -19
L-9.625 -8.29688
L-4.98438 -8.29688
Q-4.64062 -12.9844 -2.5625 -15.1875
Q-0.484375 -17.3906 3.51562 -17.3906
Q7.95312 -17.3906 10.0781 -14.375
Q12.2031 -11.375 12.2031 -5.07812
z
" id="DejaVuSerif-6a"/>
      <path id="DejaVuSerif-20"/>
     </defs>
     <g transform="translate(340.564453125 712.13125)scale(0.35 -0.35)">
      <use xlink:href="#DejaVuSerif-52"/>
      <use x="75.29296875" xlink:href="#DejaVuSerif-65"/>
      <use x="134.47265625" xlink:href="#DejaVuSerif-6a"/>
      <use x="165.478515625" xlink:href="#DejaVuSerif-65"/>
      <use x="224.658203125" xlink:href="#DejaVuSerif-63"/>
      <use x="280.6640625" xlink:href="#DejaVuSerif-74"/>
      <use x="320.849609375" xlink:href="#DejaVuSerif-20"/>
      <use x="352.63671875" xlink:href="#DejaVuSerif-52"/>
      <use x="430.1796875" xlink:href="#DejaVuSerif-61"/>
      <use x="489.798828125" xlink:href="#DejaVuSerif-74"/>
      <use x="529.984375" xlink:href="#DejaVuSerif-65"/>
     </g>
    </g>
   </g>
   <g id="matplotlib.axis_2">
    <g id="ytick_1">
     <g id="line2d_18">
      <path clip-path="url(#p20bdb09884)" d="
M108 645.951
L777.6 645.951" style="fill:none;opacity:0.7;stroke:#000000;stroke-dasharray:1.000000,3.000000;stroke-dashoffset:0.0;stroke-width:2;"/>
     </g>
     <g id="line2d_19">
      <defs>
       <path d="
M0 0
L4 0" id="m728421d6d4" style="stroke:#000000;stroke-width:0.5;"/>
      </defs>
      <g>
       <use style="stroke:#000000;stroke-width:0.5;" x="108.0" xlink:href="#m728421d6d4" y="645.951291032"/>
      </g>
     </g>
     <g id="line2d_20">
      <defs>
       <path d="
M0 0
L-4 0" id="mcb0005524f" style="stroke:#000000;stroke-width:0.5;"/>
      </defs>
      <g>
       <use style="stroke:#000000;stroke-width:0.5;" x="777.6" xlink:href="#mcb0005524f" y="645.951291032"/>
      </g>
     </g>
     <g id="text_6">
      <!-- 0.65 -->
      <defs>
       <path d="
M50.2969 72.9062
L50.2969 64.8906
L16.8906 64.8906
L16.8906 44
Q19.4375 45.75 22.8281 46.625
Q26.2188 47.5156 30.4219 47.5156
Q42.2344 47.5156 49.0625 40.9688
Q55.9062 34.4219 55.9062 23.0938
Q55.9062 11.5312 49 5.04688
Q42.0938 -1.42188 29.5938 -1.42188
Q24.5625 -1.42188 19.2812 -0.1875
Q14.0156 1.03125 8.5 3.51562
L8.5 17.6719
L14.0156 17.6719
Q14.4531 10.75 18.4219 7.07812
Q22.4062 3.42188 29.5938 3.42188
Q37.3125 3.42188 41.4531 8.5
Q45.6094 13.5781 45.6094 23.0938
Q45.6094 32.5625 41.4844 37.6094
Q37.3594 42.6719 29.5938 42.6719
Q25.2031 42.6719 21.8438 41.1094
Q18.5 39.5469 15.9219 36.2812
L11.7188 36.2812
L11.7188 72.9062
z
" id="DejaVuSerif-35"/>
      </defs>
      <g transform="translate(41.496875 654.229416032)scale(0.3 -0.3)">
       <use xlink:href="#DejaVuSerif-30"/>
       <use x="63.623046875" xlink:href="#DejaVuSerif-2e"/>
       <use x="95.41015625" xlink:href="#DejaVuSerif-36"/>
       <use x="159.033203125" xlink:href="#DejaVuSerif-35"/>
      </g>
     </g>
    </g>
    <g id="ytick_2">
     <g id="line2d_21">
      <path clip-path="url(#p20bdb09884)" d="
M108 567.756
L777.6 567.756" style="fill:none;opacity:0.7;stroke:#000000;stroke-dasharray:1.000000,3.000000;stroke-dashoffset:0.0;stroke-width:2;"/>
     </g>
     <g id="line2d_22">
      <g>
       <use style="stroke:#000000;stroke-width:0.5;" x="108.0" xlink:href="#m728421d6d4" y="567.756292254"/>
      </g>
     </g>
     <g id="line2d_23">
      <g>
       <use style="stroke:#000000;stroke-width:0.5;" x="777.6" xlink:href="#mcb0005524f" y="567.756292254"/>
      </g>
     </g>
     <g id="text_7">
      <!-- 0.70 -->
      <defs>
       <path d="
M56.3906 67.9219
L27.875 0
L20.6094 0
L47.7969 64.8906
L14.1094 64.8906
L14.1094 55.9062
L8.40625 55.9062
L8.40625 72.9062
L56.3906 72.9062
z
" id="DejaVuSerif-37"/>
      </defs>
      <g transform="translate(41.1734375 576.034417254)scale(0.3 -0.3)">
       <use xlink:href="#DejaVuSerif-30"/>
       <use x="63.623046875" xlink:href="#DejaVuSerif-2e"/>
       <use x="95.41015625" xlink:href="#DejaVuSerif-37"/>
       <use x="159.033203125" xlink:href="#DejaVuSerif-30"/>
      </g>
     </g>
    </g>
    <g id="ytick_3">
     <g id="line2d_24">
      <path clip-path="url(#p20bdb09884)" d="
M108 489.561
L777.6 489.561" style="fill:none;opacity:0.7;stroke:#000000;stroke-dasharray:1.000000,3.000000;stroke-dashoffset:0.0;stroke-width:2;"/>
     </g>
     <g id="line2d_25">
      <g>
       <use style="stroke:#000000;stroke-width:0.5;" x="108.0" xlink:href="#m728421d6d4" y="489.561293476"/>
      </g>
     </g>
     <g id="line2d_26">
      <g>
       <use style="stroke:#000000;stroke-width:0.5;" x="777.6" xlink:href="#mcb0005524f" y="489.561293476"/>
      </g>
     </g>
     <g id="text_8">
      <!-- 0.75 -->
      <g transform="translate(41.496875 497.839418476)scale(0.3 -0.3)">
       <use xlink:href="#DejaVuSerif-30"/>
       <use x="63.623046875" xlink:href="#DejaVuSerif-2e"/>
       <use x="95.41015625" xlink:href="#DejaVuSerif-37"/>
       <use x="159.033203125" xlink:href="#DejaVuSerif-35"/>
      </g>
     </g>
    </g>
    <g id="ytick_4">
     <g id="line2d_27">
      <path clip-path="url(#p20bdb09884)" d="
M108 411.366
L777.6 411.366" style="fill:none;opacity:0.7;stroke:#000000;stroke-dasharray:1.000000,3.000000;stroke-dashoffset:0.0;stroke-width:2;"/>
     </g>
     <g id="line2d_28">
      <g>
       <use style="stroke:#000000;stroke-width:0.5;" x="108.0" xlink:href="#m728421d6d4" y="411.366294697"/>
      </g>
     </g>
     <g id="line2d_29">
      <g>
       <use style="stroke:#000000;stroke-width:0.5;" x="777.6" xlink:href="#mcb0005524f" y="411.366294697"/>
      </g>
     </g>
     <g id="text_9">
      <!-- 0.80 -->
      <g transform="translate(41.1734375 419.644419697)scale(0.3 -0.3)">
       <use xlink:href="#DejaVuSerif-30"/>
       <use x="63.623046875" xlink:href="#DejaVuSerif-2e"/>
       <use x="95.41015625" xlink:href="#DejaVuSerif-38"/>
       <use x="159.033203125" xlink:href="#DejaVuSerif-30"/>
      </g>
     </g>
    </g>
    <g id="ytick_5">
     <g id="line2d_30">
      <path clip-path="url(#p20bdb09884)" d="
M108 333.171
L777.6 333.171" style="fill:none;opacity:0.7;stroke:#000000;stroke-dasharray:1.000000,3.000000;stroke-dashoffset:0.0;stroke-width:2;"/>
     </g>
     <g id="line2d_31">
      <g>
       <use style="stroke:#000000;stroke-width:0.5;" x="108.0" xlink:href="#m728421d6d4" y="333.171295919"/>
      </g>
     </g>
     <g id="line2d_32">
      <g>
       <use style="stroke:#000000;stroke-width:0.5;" x="777.6" xlink:href="#mcb0005524f" y="333.171295919"/>
      </g>
     </g>
     <g id="text_10">
      <!-- 0.85 -->
      <g transform="translate(41.496875 341.449420919)scale(0.3 -0.3)">
       <use xlink:href="#DejaVuSerif-30"/>
       <use x="63.623046875" xlink:href="#DejaVuSerif-2e"/>
       <use x="95.41015625" xlink:href="#DejaVuSerif-38"/>
       <use x="159.033203125" xlink:href="#DejaVuSerif-35"/>
      </g>
     </g>
    </g>
    <g id="ytick_6">
     <g id="line2d_33">
      <path clip-path="url(#p20bdb09884)" d="
M108 254.976
L777.6 254.976" style="fill:none;opacity:0.7;stroke:#000000;stroke-dasharray:1.000000,3.000000;stroke-dashoffset:0.0;stroke-width:2;"/>
     </g>
     <g id="line2d_34">
      <g>
       <use style="stroke:#000000;stroke-width:0.5;" x="108.0" xlink:href="#m728421d6d4" y="254.976297141"/>
      </g>
     </g>
     <g id="line2d_35">
      <g>
       <use style="stroke:#000000;stroke-width:0.5;" x="777.6" xlink:href="#mcb0005524f" y="254.976297141"/>
      </g>
     </g>
     <g id="text_11">
      <!-- 0.90 -->
      <defs>
       <path d="
M46.7812 32.6719
Q43.5 29 39.25 27.1875
Q35.0156 25.3906 29.6875 25.3906
Q18.8438 25.3906 12.5625 31.9375
Q6.29688 38.4844 6.29688 49.8125
Q6.29688 60.8906 13.1094 67.5469
Q19.9219 74.2188 31.2969 74.2188
Q43.6562 74.2188 50.2656 65.0156
Q56.8906 55.8125 56.8906 38.7188
Q56.8906 19.5781 49.0156 9.07812
Q41.1562 -1.42188 26.9062 -1.42188
Q23.0469 -1.42188 18.7969 -0.6875
Q14.5469 0.046875 10.1094 1.51562
L10.1094 13.625
L15.5781 13.625
Q16.2188 8.6875 19.3906 6.04688
Q22.5625 3.42188 27.875 3.42188
Q37.3594 3.42188 41.9844 10.5625
Q46.625 17.7188 46.7812 32.6719
M30.9062 69.3906
Q23.9688 69.3906 20.2812 64.3281
Q16.6094 59.2812 16.6094 49.8125
Q16.6094 40.3281 20.2812 35.25
Q23.9688 30.1719 30.9062 30.1719
Q37.8438 30.1719 41.5312 35.0781
Q45.2188 39.9844 45.2188 49.2188
Q45.2188 58.9375 41.5 64.1562
Q37.7969 69.3906 30.9062 69.3906" id="DejaVuSerif-39"/>
      </defs>
      <g transform="translate(41.1734375 263.254422141)scale(0.3 -0.3)">
       <use xlink:href="#DejaVuSerif-30"/>
       <use x="63.623046875" xlink:href="#DejaVuSerif-2e"/>
       <use x="95.41015625" xlink:href="#DejaVuSerif-39"/>
       <use x="159.033203125" xlink:href="#DejaVuSerif-30"/>
      </g>
     </g>
    </g>
    <g id="ytick_7">
     <g id="line2d_36">
      <path clip-path="url(#p20bdb09884)" d="
M108 176.781
L777.6 176.781" style="fill:none;opacity:0.7;stroke:#000000;stroke-dasharray:1.000000,3.000000;stroke-dashoffset:0.0;stroke-width:2;"/>
     </g>
     <g id="line2d_37">
      <g>
       <use style="stroke:#000000;stroke-width:0.5;" x="108.0" xlink:href="#m728421d6d4" y="176.781298363"/>
      </g>
     </g>
     <g id="line2d_38">
      <g>
       <use style="stroke:#000000;stroke-width:0.5;" x="777.6" xlink:href="#mcb0005524f" y="176.781298363"/>
      </g>
     </g>
     <g id="text_12">
      <!-- 0.95 -->
      <g transform="translate(41.496875 185.059423363)scale(0.3 -0.3)">
       <use xlink:href="#DejaVuSerif-30"/>
       <use x="63.623046875" xlink:href="#DejaVuSerif-2e"/>
       <use x="95.41015625" xlink:href="#DejaVuSerif-39"/>
       <use x="159.033203125" xlink:href="#DejaVuSerif-35"/>
      </g>
     </g>
    </g>
    <g id="ytick_8">
     <g id="line2d_39">
      <path clip-path="url(#p20bdb09884)" d="
M108 98.5863
L777.6 98.5863" style="fill:none;opacity:0.7;stroke:#000000;stroke-dasharray:1.000000,3.000000;stroke-dashoffset:0.0;stroke-width:2;"/>
     </g>
     <g id="line2d_40">
      <g>
       <use style="stroke:#000000;stroke-width:0.5;" x="108.0" xlink:href="#m728421d6d4" y="98.5862995846"/>
      </g>
     </g>
     <g id="line2d_41">
      <g>
       <use style="stroke:#000000;stroke-width:0.5;" x="777.6" xlink:href="#mcb0005524f" y="98.5862995846"/>
      </g>
     </g>
     <g id="text_13">
      <!-- 1.00 -->
      <defs>
       <path d="
M14.2031 0
L14.2031 5.17188
L26.9062 5.17188
L26.9062 65.8281
L12.2031 56.2969
L12.2031 62.7031
L29.9844 74.2188
L36.7188 74.2188
L36.7188 5.17188
L49.4219 5.17188
L49.4219 0
z
" id="DejaVuSerif-31"/>
      </defs>
      <g transform="translate(42.85625 106.864424585)scale(0.3 -0.3)">
       <use xlink:href="#DejaVuSerif-31"/>
       <use x="63.623046875" xlink:href="#DejaVuSerif-2e"/>
       <use x="95.41015625" xlink:href="#DejaVuSerif-30"/>
       <use x="159.033203125" xlink:href="#DejaVuSerif-30"/>
      </g>
     </g>
    </g>
    <g id="text_14">
     <!-- Accuracy -->
     <defs>
      <path d="
M35.4062 51.9062
L52.2031 51.9062
L52.2031 5.17188
L60.6875 5.17188
L60.6875 0
L43.2188 0
L43.2188 9.1875
Q40.7188 4 36.7656 1.28125
Q32.8125 -1.42188 27.5938 -1.42188
Q18.9531 -1.42188 14.875 3.48438
Q10.7969 8.40625 10.7969 18.8906
L10.7969 46.6875
L2.6875 46.6875
L2.6875 51.9062
L19.8281 51.9062
L19.8281 21.6875
Q19.8281 12.2031 22.1406 8.6875
Q24.4688 5.17188 30.4219 5.17188
Q36.6719 5.17188 39.9375 9.76562
Q43.2188 14.3594 43.2188 23.0938
L43.2188 46.6875
L35.4062 46.6875
z
" id="DejaVuSerif-75"/>
      <path d="
M47.7969 52
L47.7969 39.0156
L42.625 39.0156
Q42.3906 42.875 40.4844 44.7812
Q38.5781 46.6875 34.9062 46.6875
Q28.2656 46.6875 24.7188 42.0938
Q21.1875 37.5 21.1875 28.9062
L21.1875 5.17188
L31.5938 5.17188
L31.5938 0
L4.10938 0
L4.10938 5.17188
L12.2031 5.17188
L12.2031 46.7812
L3.60938 46.7812
L3.60938 51.9062
L21.1875 51.9062
L21.1875 42.6719
Q23.8281 48.0938 27.9688 50.7031
Q32.125 53.3281 38.0938 53.3281
Q40.2812 53.3281 42.7031 52.9844
Q45.125 52.6406 47.7969 52" id="DejaVuSerif-72"/>
      <path d="
M20.0156 26.4219
L46.7812 26.4219
L33.4062 61.0781
z

M-0.59375 0
L-0.59375 5.17188
L5.8125 5.17188
L31.7812 72.9062
L39.9844 72.9062
L66.0156 5.17188
L73.1875 5.17188
L73.1875 0
L46.6875 0
L46.6875 5.17188
L54.7812 5.17188
L48.6875 21.1875
L18.0156 21.1875
L11.9219 5.17188
L19.9219 5.17188
L19.9219 0
z
" id="DejaVuSerif-41"/>
      <path d="
M21.5781 -9.51562
L25 -0.875
L5.60938 46.6875
L-0.296875 46.6875
L-0.296875 51.9062
L23.5781 51.9062
L23.5781 46.6875
L15.2812 46.6875
L29.8906 10.9844
L44.4844 46.6875
L36.7188 46.6875
L36.7188 51.9062
L56.2031 51.9062
L56.2031 46.6875
L50.3906 46.6875
L26.6094 -11.7188
Q24.1719 -17.7812 21.1875 -20
Q18.2188 -22.2188 12.7969 -22.2188
Q10.5 -22.2188 8.07812 -21.8281
Q5.67188 -21.4375 3.21875 -20.7031
L3.21875 -10.7969
L7.8125 -10.7969
Q8.10938 -14.1094 9.5 -15.5469
Q10.8906 -17 13.8125 -17
Q16.5 -17 18.1406 -15.5
Q19.7812 -14.0156 21.5781 -9.51562" id="DejaVuSerif-79"/>
     </defs>
     <g transform="translate(28.396875 442.04765625)rotate(-90.0)scale(0.35 -0.35)">
      <use xlink:href="#DejaVuSerif-41"/>
      <use x="72.216796875" xlink:href="#DejaVuSerif-63"/>
      <use x="128.22265625" xlink:href="#DejaVuSerif-63"/>
      <use x="184.228515625" xlink:href="#DejaVuSerif-75"/>
      <use x="248.6328125" xlink:href="#DejaVuSerif-72"/>
      <use x="296.435546875" xlink:href="#DejaVuSerif-61"/>
      <use x="356.0546875" xlink:href="#DejaVuSerif-63"/>
      <use x="412.060546875" xlink:href="#DejaVuSerif-79"/>
     </g>
    </g>
   </g>
   <g id="patch_3">
    <path d="
M108 72
L777.6 72" style="fill:none;stroke:#000000;"/>
   </g>
   <g id="patch_4">
    <path d="
M777.6 648
L777.6 72" style="fill:none;stroke:#000000;"/>
   </g>
   <g id="patch_5">
    <path d="
M108 648
L777.6 648" style="fill:none;stroke:#000000;"/>
   </g>
   <g id="patch_6">
    <path d="
M108 648
L108 72" style="fill:none;stroke:#000000;"/>
   </g>
   <g id="text_15">
    <!-- syntheticI (80%) -->
    <defs>
     <path d="
M7.07812 -15.5781
L7.07812 -10.7969
Q14.5938 -5.60938 17.8906 3.78125
Q21.1875 13.1875 21.1875 30.1719
Q21.1875 47.2188 17.8906 56.6094
Q14.5938 66.0156 7.07812 71.1875
L7.07812 75.9844
Q19 70.6562 25.0469 59.1094
Q31.1094 47.5625 31.1094 30.1719
Q31.1094 12.8438 25.0469 1.29688
Q19 -10.25 7.07812 -15.5781" id="DejaVuSerif-29"/>
     <path d="
M5.60938 2.875
L5.60938 14.9844
L10.7969 14.9844
Q10.9844 9.1875 14.4219 6.29688
Q17.875 3.42188 24.6094 3.42188
Q30.6719 3.42188 33.8438 5.6875
Q37.0156 7.95312 37.0156 12.3125
Q37.0156 15.7188 34.6875 17.8125
Q32.375 19.9219 24.9062 22.3125
L18.4062 24.5156
Q11.7188 26.6562 8.71875 29.875
Q5.71875 33.1094 5.71875 38.0938
Q5.71875 45.2188 10.9375 49.2656
Q16.1562 53.3281 25.3906 53.3281
Q29.5 53.3281 34.0312 52.25
Q38.5781 51.1719 43.4062 49.125
L43.4062 37.7969
L38.2344 37.7969
Q38.0312 42.8281 34.7031 45.6562
Q31.3906 48.4844 25.6875 48.4844
Q20.0156 48.4844 17.1094 46.4844
Q14.2031 44.4844 14.2031 40.4844
Q14.2031 37.2031 16.4062 35.2188
Q18.6094 33.25 25.2031 31.2031
L32.3281 29
Q39.7031 26.7031 42.9375 23.2656
Q46.1875 19.8281 46.1875 14.4062
Q46.1875 7.03125 40.5469 2.79688
Q34.9062 -1.42188 25 -1.42188
Q19.9688 -1.42188 15.1875 -0.34375
Q10.4062 0.734375 5.60938 2.875" id="DejaVuSerif-73"/>
     <path d="
M9.71875 68.0156
Q9.71875 70.2656 11.3438 71.9219
Q12.9844 73.5781 15.2812 73.5781
Q17.5312 73.5781 19.1562 71.9219
Q20.7969 70.2656 20.7969 68.0156
Q20.7969 65.7188 19.1875 64.1094
Q17.5781 62.5 15.2812 62.5
Q12.9844 62.5 11.3438 64.1094
Q9.71875 65.7188 9.71875 68.0156
M21.1875 5.17188
L29.6875 5.17188
L29.6875 0
L3.60938 0
L3.60938 5.17188
L12.2031 5.17188
L12.2031 46.6875
L3.60938 46.6875
L3.60938 51.9062
L21.1875 51.9062
z
" id="DejaVuSerif-69"/>
     <path d="
M4.10938 0
L4.10938 5.17188
L12.2031 5.17188
L12.2031 70.7969
L3.60938 70.7969
L3.60938 75.9844
L21.1875 75.9844
L21.1875 42.6719
Q23.6875 47.9531 27.6562 50.6406
Q31.6406 53.3281 36.9219 53.3281
Q45.5156 53.3281 49.5625 48.3906
Q53.6094 43.4531 53.6094 33.0156
L53.6094 5.17188
L61.625 5.17188
L61.625 0
L36.8125 0
L36.8125 5.17188
L44.5781 5.17188
L44.5781 30.1719
Q44.5781 39.7031 42.25 43.1875
Q39.9375 46.6875 33.9844 46.6875
Q27.7344 46.6875 24.4531 42.1406
Q21.1875 37.5938 21.1875 28.9062
L21.1875 5.17188
L29 5.17188
L29 0
z
" id="DejaVuSerif-68"/>
     <path d="
M4.10938 0
L4.10938 5.17188
L12.2031 5.17188
L12.2031 46.6875
L3.60938 46.6875
L3.60938 51.9062
L21.1875 51.9062
L21.1875 42.6719
Q23.6875 47.9531 27.6562 50.6406
Q31.6406 53.3281 36.9219 53.3281
Q45.5156 53.3281 49.5625 48.3906
Q53.6094 43.4531 53.6094 33.0156
L53.6094 5.17188
L61.625 5.17188
L61.625 0
L36.8125 0
L36.8125 5.17188
L44.5781 5.17188
L44.5781 30.1719
Q44.5781 39.7031 42.2344 43.2344
Q39.8906 46.7812 33.9844 46.7812
Q27.7344 46.7812 24.4531 42.2031
Q21.1875 37.6406 21.1875 28.9062
L21.1875 5.17188
L29 5.17188
L29 0
z
" id="DejaVuSerif-6e"/>
     <path d="
M31.8906 -15.5781
Q20.0156 -10.25 13.9531 1.29688
Q7.90625 12.8438 7.90625 30.1719
Q7.90625 47.5625 13.9531 59.1094
Q20.0156 70.6562 31.8906 75.9844
L31.8906 71.1875
Q24.3594 66.0156 21.0938 56.6094
Q17.8281 47.2188 17.8281 30.1719
Q17.8281 13.1875 21.0938 3.78125
Q24.3594 -5.60938 31.8906 -10.7969
z
" id="DejaVuSerif-28"/>
     <path d="
M24.7031 5.17188
L33.9844 5.17188
L33.9844 0
L5.51562 0
L5.51562 5.17188
L14.7969 5.17188
L14.7969 67.6719
L5.51562 67.6719
L5.51562 72.9062
L33.9844 72.9062
L33.9844 67.6719
L24.7031 67.6719
z
" id="DejaVuSerif-49"/>
     <path d="
M22.4062 69.6719
Q18.1094 69.6719 15.6875 65.625
Q13.2812 61.5781 13.2812 54.2969
Q13.2812 47.125 15.75 43.0156
Q18.2188 38.9219 22.4062 38.9219
Q26.5625 38.9219 28.9688 43
Q31.3906 47.0781 31.3906 54.2969
Q31.3906 61.5312 28.9688 65.5938
Q26.5625 69.6719 22.4062 69.6719
M72.7031 33.8906
Q68.4531 33.8906 66.0312 29.7812
Q63.625 25.6875 63.625 18.4062
Q63.625 11.2344 66.0625 7.15625
Q68.5 3.07812 72.7031 3.07812
Q76.9062 3.07812 79.2969 7.15625
Q81.6875 11.2344 81.6875 18.4062
Q81.6875 25.6406 79.2656 29.7656
Q76.8594 33.8906 72.7031 33.8906
M72.7031 38.2812
Q80.4219 38.2812 84.9531 32.9062
Q89.5 27.5469 89.5 18.4062
Q89.5 9.28125 84.9375 3.92188
Q80.375 -1.42188 72.7031 -1.42188
Q64.8906 -1.42188 60.3438 3.92188
Q55.8125 9.28125 55.8125 18.4062
Q55.8125 27.5938 60.375 32.9375
Q64.9375 38.2812 72.7031 38.2812
M66.6094 74.2188
L74.0312 74.2188
L28.4219 -1.42188
L21 -1.42188
z

M22.3125 74.2188
Q30.0312 74.2188 34.6094 68.875
Q39.2031 63.5312 39.2031 54.3906
Q39.2031 45.1719 34.6406 39.8438
Q30.0781 34.5156 22.3125 34.5156
Q14.5469 34.5156 10.0312 39.8594
Q5.51562 45.2188 5.51562 54.3906
Q5.51562 63.4844 10.0469 68.8438
Q14.5938 74.2188 22.3125 74.2188" id="DejaVuSerif-25"/>
    </defs>
    <g transform="translate(256.53515625 57.0015625)scale(0.45 -0.45)">
     <use xlink:href="#DejaVuSerif-73"/>
     <use x="51.318359375" xlink:href="#DejaVuSerif-79"/>
     <use x="107.8125" xlink:href="#DejaVuSerif-6e"/>
     <use x="172.216796875" xlink:href="#DejaVuSerif-74"/>
     <use x="212.40234375" xlink:href="#DejaVuSerif-68"/>
     <use x="276.806640625" xlink:href="#DejaVuSerif-65"/>
     <use x="335.986328125" xlink:href="#DejaVuSerif-74"/>
     <use x="376.171875" xlink:href="#DejaVuSerif-69"/>
     <use x="408.154296875" xlink:href="#DejaVuSerif-63"/>
     <use x="464.16015625" xlink:href="#DejaVuSerif-49"/>
     <use x="503.662109375" xlink:href="#DejaVuSerif-20"/>
     <use x="535.44921875" xlink:href="#DejaVuSerif-28"/>
     <use x="574.462890625" xlink:href="#DejaVuSerif-38"/>
     <use x="638.0859375" xlink:href="#DejaVuSerif-30"/>
     <use x="701.708984375" xlink:href="#DejaVuSerif-25"/>
     <use x="796.728515625" xlink:href="#DejaVuSerif-29"/>
    </g>
   </g>
   <g id="legend_1">
    <g id="patch_7">
     <path d="
M407.277 640.8
L770.4 640.8
L770.4 455.308
L407.277 455.308
L407.277 640.8
z
" style="fill:#ffffff;stroke:#000000;"/>
    </g>
    <g id="line2d_42">
     <path d="
M417.357 478.823
L437.517 478.823" style="fill:none;stroke:#9696ff;stroke-linecap:square;stroke-width:4;"/>
    </g>
    <g id="line2d_43">
     <g>
      <use style="fill:#9696ff;stroke:#000000;stroke-linejoin:miter;stroke-width:1.5;" x="417.3571875" xlink:href="#m79f3c46b2e" y="478.8234375"/>
      <use style="fill:#9696ff;stroke:#000000;stroke-linejoin:miter;stroke-width:1.5;" x="437.5171875" xlink:href="#m79f3c46b2e" y="478.8234375"/>
     </g>
    </g>
    <g id="text_16">
     <!-- (ROSOM-2C) Parzen -->
     <defs>
      <path d="
M24.7031 37.1094
L37.5938 37.1094
Q44.875 37.1094 48.6719 41.0312
Q52.4844 44.9688 52.4844 52.3906
Q52.4844 59.8594 48.6719 63.7656
Q44.875 67.6719 37.5938 67.6719
L24.7031 67.6719
z

M5.51562 0
L5.51562 5.17188
L14.7969 5.17188
L14.7969 67.6719
L5.51562 67.6719
L5.51562 72.9062
L39.9844 72.9062
Q50.9219 72.9062 57.3125 67.3594
Q63.7188 61.8125 63.7188 52.3906
Q63.7188 43.0156 57.3125 37.4531
Q50.9219 31.8906 39.9844 31.8906
L24.7031 31.8906
L24.7031 5.17188
L35.9844 5.17188
L35.9844 0
z
" id="DejaVuSerif-50"/>
      <path d="
M9.28125 3.51562
L9.28125 20.125
L14.8906 20.0625
Q15.1406 11.7656 19.7031 7.78125
Q24.2656 3.8125 33.5938 3.8125
Q42.2812 3.8125 46.8438 7.25
Q51.4219 10.6875 51.4219 17.2812
Q51.4219 22.5625 48.6562 25.3906
Q45.9062 28.2188 37.0156 30.9062
L27.3906 33.7969
Q16.9375 36.9688 12.6719 41.7031
Q8.40625 46.4375 8.40625 54.6875
Q8.40625 63.9688 14.9844 69.0938
Q21.5781 74.2188 33.5 74.2188
Q38.5781 74.2188 44.625 73.1094
Q50.6875 72.0156 57.5156 69.9219
L57.5156 54.3906
L52 54.3906
Q51.1719 62.1094 46.8438 65.5469
Q42.5312 69 33.6875 69
Q25.9844 69 21.9531 65.8438
Q17.9219 62.7031 17.9219 56.6875
Q17.9219 51.4688 20.9375 48.4844
Q23.9688 45.5156 33.7969 42.5781
L42.8281 39.8906
Q52.7344 36.9219 56.9531 32.2969
Q61.1875 27.6875 61.1875 19.9219
Q61.1875 9.32812 54.3906 3.95312
Q47.6094 -1.42188 34.1875 -1.42188
Q28.1719 -1.42188 21.9375 -0.1875
Q15.7188 1.03125 9.28125 3.51562" id="DejaVuSerif-53"/>
      <path d="
M41.0156 3.8125
Q52.9844 3.8125 59.0781 12.0312
Q65.1875 20.2656 65.1875 36.375
Q65.1875 52.5469 59.0781 60.7656
Q52.9844 69 41.0156 69
Q29 69 22.8906 60.7656
Q16.7969 52.5469 16.7969 36.375
Q16.7969 20.2656 22.8906 12.0312
Q29 3.8125 41.0156 3.8125
M41.0156 -1.42188
Q33.5938 -1.42188 27.3594 1.01562
Q21.1406 3.46875 16.4062 8.20312
Q10.9375 13.6719 8.26562 20.6094
Q5.60938 27.5469 5.60938 36.375
Q5.60938 45.2188 8.26562 52.1719
Q10.9375 59.125 16.4062 64.5938
Q21.1875 69.3906 27.3438 71.7969
Q33.5 74.2188 41.0156 74.2188
Q56.8906 74.2188 66.6562 63.8125
Q76.4219 53.4219 76.4219 36.375
Q76.4219 27.6406 73.7344 20.625
Q71.0469 13.625 65.5781 8.20312
Q60.7969 3.42188 54.6406 1
Q48.4844 -1.42188 41.0156 -1.42188" id="DejaVuSerif-4f"/>
      <path d="
M5.51562 0
L5.51562 5.17188
L14.7969 5.17188
L14.7969 67.6719
L4.98438 67.6719
L4.98438 72.9062
L26.2188 72.9062
L51.8125 21
L77.3906 72.9062
L97.3125 72.9062
L97.3125 67.6719
L87.5938 67.6719
L87.5938 5.17188
L96.9219 5.17188
L96.9219 0
L68.4062 0
L68.4062 5.17188
L77.6875 5.17188
L77.6875 61.5312
L52.6875 10.6875
L45.7969 10.6875
L20.7969 61.5312
L20.7969 5.17188
L30.0781 5.17188
L30.0781 0
z
" id="DejaVuSerif-4d"/>
      <path d="
M4.39062 30.6094
L29.3906 30.6094
L29.3906 23
L4.39062 23
z
" id="DejaVuSerif-2d"/>
      <path d="
M4 0
L4 4.20312
L36.5312 46.6875
L10.7969 46.6875
L10.7969 37.7031
L5.60938 37.7031
L5.60938 51.9062
L48.0938 51.9062
L48.0938 47.7031
L15.5781 5.17188
L43.7969 5.17188
L43.7969 14.5938
L49.0312 14.5938
L49.0312 0
z
" id="DejaVuSerif-7a"/>
      <path d="
M70.5156 19.2812
Q67.2812 9.07812 59.6875 3.82812
Q52.0938 -1.42188 40.4844 -1.42188
Q33.3438 -1.42188 27.2344 1.01562
Q21.1406 3.46875 16.4062 8.20312
Q10.9375 13.6719 8.26562 20.625
Q5.60938 27.5938 5.60938 36.375
Q5.60938 53.375 15.4219 63.7969
Q25.25 74.2188 41.3125 74.2188
Q47.2656 74.2188 54 72.6562
Q60.75 71.0938 68.5 67.9219
L68.5 51.125
L62.9844 51.125
Q61.1875 60.2969 55.7344 64.6406
Q50.2969 69 40.4844 69
Q28.8125 69 22.7969 60.7188
Q16.7969 52.4375 16.7969 36.375
Q16.7969 20.3594 22.7969 12.0781
Q28.8125 3.8125 40.4844 3.8125
Q48.6406 3.8125 53.9062 7.6875
Q59.1875 11.5781 61.5312 19.2812
z
" id="DejaVuSerif-43"/>
     </defs>
     <g transform="translate(453.3571875 483.8634375)scale(0.3 -0.3)">
      <use xlink:href="#DejaVuSerif-28"/>
      <use x="39.013671875" xlink:href="#DejaVuSerif-52"/>
      <use x="114.306640625" xlink:href="#DejaVuSerif-4f"/>
      <use x="196.2890625" xlink:href="#DejaVuSerif-53"/>
      <use x="264.794921875" xlink:href="#DejaVuSerif-4f"/>
      <use x="346.77734375" xlink:href="#DejaVuSerif-4d"/>
      <use x="449.169921875" xlink:href="#DejaVuSerif-2d"/>
      <use x="482.958984375" xlink:href="#DejaVuSerif-32"/>
      <use x="546.58203125" xlink:href="#DejaVuSerif-43"/>
      <use x="623.095703125" xlink:href="#DejaVuSerif-29"/>
      <use x="662.109375" xlink:href="#DejaVuSerif-20"/>
      <use x="693.896484375" xlink:href="#DejaVuSerif-50"/>
      <use x="756.681640625" xlink:href="#DejaVuSerif-61"/>
      <use x="816.30078125" xlink:href="#DejaVuSerif-72"/>
      <use x="864.103515625" xlink:href="#DejaVuSerif-7a"/>
      <use x="916.7890625" xlink:href="#DejaVuSerif-65"/>
      <use x="975.96875" xlink:href="#DejaVuSerif-6e"/>
     </g>
    </g>
    <g id="line2d_44">
     <path d="
M417.357 515.058
L437.517 515.058" style="fill:none;stroke:#ff9600;stroke-linecap:square;stroke-width:4;"/>
    </g>
    <g id="line2d_45">
     <g>
      <use style="fill:#ff9600;stroke:#000000;stroke-width:1.5;" x="417.3571875" xlink:href="#m2a914b3d6a" y="515.0578125"/>
      <use style="fill:#ff9600;stroke:#000000;stroke-width:1.5;" x="437.5171875" xlink:href="#m2a914b3d6a" y="515.0578125"/>
     </g>
    </g>
    <g id="text_17">
     <!-- (ROSOM-2C) Gini -->
     <defs>
      <path d="
M64.0156 51.125
Q62.3125 60.25 56.8906 64.625
Q51.4688 69 41.7969 69
Q29.2031 69 23 60.8906
Q16.7969 52.7812 16.7969 36.375
Q16.7969 20.3125 23.1875 12.0625
Q29.5938 3.8125 42 3.8125
Q47.5156 3.8125 52.5312 5.17188
Q57.5625 6.54688 62.1094 9.28125
L62.1094 28.0781
L48.3906 28.0781
L48.3906 33.2969
L72.0156 33.2969
L72.0156 6.10938
Q65.5312 2.34375 58.0312 0.453125
Q50.5312 -1.42188 42 -1.42188
Q25.4844 -1.42188 15.5469 8.90625
Q5.60938 19.2344 5.60938 36.375
Q5.60938 53.6562 15.5625 63.9375
Q25.5312 74.2188 42.3906 74.2188
Q48.6406 74.2188 55.2969 72.7812
Q61.9688 71.3438 69.4844 68.4062
L69.4844 51.125
z
" id="DejaVuSerif-47"/>
     </defs>
     <g transform="translate(453.3571875 520.0978125)scale(0.3 -0.3)">
      <use xlink:href="#DejaVuSerif-28"/>
      <use x="39.013671875" xlink:href="#DejaVuSerif-52"/>
      <use x="114.306640625" xlink:href="#DejaVuSerif-4f"/>
      <use x="196.2890625" xlink:href="#DejaVuSerif-53"/>
      <use x="264.794921875" xlink:href="#DejaVuSerif-4f"/>
      <use x="346.77734375" xlink:href="#DejaVuSerif-4d"/>
      <use x="449.169921875" xlink:href="#DejaVuSerif-2d"/>
      <use x="482.958984375" xlink:href="#DejaVuSerif-32"/>
      <use x="546.58203125" xlink:href="#DejaVuSerif-43"/>
      <use x="623.095703125" xlink:href="#DejaVuSerif-29"/>
      <use x="662.109375" xlink:href="#DejaVuSerif-20"/>
      <use x="693.896484375" xlink:href="#DejaVuSerif-47"/>
      <use x="773.779296875" xlink:href="#DejaVuSerif-69"/>
      <use x="805.76171875" xlink:href="#DejaVuSerif-6e"/>
      <use x="870.166015625" xlink:href="#DejaVuSerif-69"/>
     </g>
    </g>
    <g id="line2d_46">
     <path d="
M417.357 551.292
L437.517 551.292" style="fill:none;stroke:#969600;stroke-linecap:square;stroke-width:4;"/>
    </g>
    <g id="line2d_47">
     <g>
      <use style="fill:#969600;stroke:#000000;stroke-linejoin:miter;stroke-width:1.5;" x="417.3571875" xlink:href="#m9202b17d64" y="551.2921875"/>
      <use style="fill:#969600;stroke:#000000;stroke-linejoin:miter;stroke-width:1.5;" x="437.5171875" xlink:href="#m9202b17d64" y="551.2921875"/>
     </g>
    </g>
    <g id="text_18">
     <!-- (ROSOM-2C) GMM -->
     <g transform="translate(453.3571875 556.3321875)scale(0.3 -0.3)">
      <use xlink:href="#DejaVuSerif-28"/>
      <use x="39.013671875" xlink:href="#DejaVuSerif-52"/>
      <use x="114.306640625" xlink:href="#DejaVuSerif-4f"/>
      <use x="196.2890625" xlink:href="#DejaVuSerif-53"/>
      <use x="264.794921875" xlink:href="#DejaVuSerif-4f"/>
      <use x="346.77734375" xlink:href="#DejaVuSerif-4d"/>
      <use x="449.169921875" xlink:href="#DejaVuSerif-2d"/>
      <use x="482.958984375" xlink:href="#DejaVuSerif-32"/>
      <use x="546.58203125" xlink:href="#DejaVuSerif-43"/>
      <use x="623.095703125" xlink:href="#DejaVuSerif-29"/>
      <use x="662.109375" xlink:href="#DejaVuSerif-20"/>
      <use x="693.896484375" xlink:href="#DejaVuSerif-47"/>
      <use x="773.779296875" xlink:href="#DejaVuSerif-4d"/>
      <use x="876.171875" xlink:href="#DejaVuSerif-4d"/>
     </g>
    </g>
    <g id="line2d_48">
     <path d="
M417.357 587.527
L437.517 587.527" style="fill:none;stroke:#969696;stroke-linecap:square;stroke-width:4;"/>
    </g>
    <g id="line2d_49">
     <g>
      <use style="fill:#969696;stroke:#000000;stroke-linejoin:miter;stroke-width:1.5;" x="417.3571875" xlink:href="#mec6b106c3b" y="587.5265625"/>
      <use style="fill:#969696;stroke:#000000;stroke-linejoin:miter;stroke-width:1.5;" x="437.5171875" xlink:href="#mec6b106c3b" y="587.5265625"/>
     </g>
    </g>
    <g id="text_19">
     <!-- MLP-2C -->
     <defs>
      <path d="
M5.51562 0
L5.51562 5.17188
L14.7969 5.17188
L14.7969 67.6719
L5.51562 67.6719
L5.51562 72.9062
L33.9844 72.9062
L33.9844 67.6719
L24.7031 67.6719
L24.7031 6
L58.0156 6
L58.0156 18.2188
L64.0156 18.2188
L64.0156 0
z
" id="DejaVuSerif-4c"/>
     </defs>
     <g transform="translate(453.3571875 592.5665625)scale(0.3 -0.3)">
      <use xlink:href="#DejaVuSerif-4d"/>
      <use x="102.392578125" xlink:href="#DejaVuSerif-4c"/>
      <use x="168.798828125" xlink:href="#DejaVuSerif-50"/>
      <use x="230.583984375" xlink:href="#DejaVuSerif-2d"/>
      <use x="264.373046875" xlink:href="#DejaVuSerif-32"/>
      <use x="327.99609375" xlink:href="#DejaVuSerif-43"/>
     </g>
    </g>
    <g id="line2d_50">
     <path d="
M417.357 623.761
L437.517 623.761" style="fill:none;stroke:#005500;stroke-linecap:square;stroke-width:4;"/>
    </g>
    <g id="line2d_51">
     <g>
      <use style="fill:#005500;stroke:#000000;stroke-linejoin:miter;stroke-width:1.5;" x="417.3571875" xlink:href="#m15d7f748dd" y="623.7609375"/>
      <use style="fill:#005500;stroke:#000000;stroke-linejoin:miter;stroke-width:1.5;" x="437.5171875" xlink:href="#m15d7f748dd" y="623.7609375"/>
     </g>
    </g>
    <g id="text_20">
     <!-- (SVM) Fumera -->
     <defs>
      <path d="
M5.51562 0
L5.51562 5.17188
L14.7969 5.17188
L14.7969 67.6719
L5.51562 67.6719
L5.51562 72.9062
L65.1875 72.9062
L65.1875 56.6875
L59.1875 56.6875
L59.1875 66.8906
L24.7031 66.8906
L24.7031 42.4844
L49.6094 42.4844
L49.6094 51.6094
L55.6094 51.6094
L55.6094 27.3906
L49.6094 27.3906
L49.6094 36.5312
L24.7031 36.5312
L24.7031 5.17188
L36.375 5.17188
L36.375 0
z
" id="DejaVuSerif-46"/>
      <path d="
M17.4844 67.6719
L39.0156 11.7188
L60.5 67.6719
L52.2969 67.6719
L52.2969 72.9062
L73.6875 72.9062
L73.6875 67.6719
L66.6094 67.6719
L40.5781 0
L32.1719 0
L6.29688 67.6719
L-0.984375 67.6719
L-0.984375 72.9062
L25.5938 72.9062
L25.5938 67.6719
z
" id="DejaVuSerif-56"/>
      <path d="
M51.8125 41.7969
Q54.3906 47.5156 58.4219 50.4219
Q62.4531 53.3281 67.8281 53.3281
Q75.9844 53.3281 79.9844 48.2656
Q83.9844 43.2188 83.9844 33.0156
L83.9844 5.17188
L92.0938 5.17188
L92.0938 0
L67.1875 0
L67.1875 5.17188
L75 5.17188
L75 31.9844
Q75 39.9375 72.6562 43.3125
Q70.3125 46.6875 64.8906 46.6875
Q58.8906 46.6875 55.7344 42.1406
Q52.5938 37.5938 52.5938 28.9062
L52.5938 5.17188
L60.4062 5.17188
L60.4062 0
L35.7969 0
L35.7969 5.17188
L43.6094 5.17188
L43.6094 32.3281
Q43.6094 40.0938 41.2656 43.3906
Q38.9219 46.6875 33.5 46.6875
Q27.4844 46.6875 24.3281 42.1406
Q21.1875 37.5938 21.1875 28.9062
L21.1875 5.17188
L29 5.17188
L29 0
L4.10938 0
L4.10938 5.17188
L12.2031 5.17188
L12.2031 46.7812
L3.60938 46.7812
L3.60938 51.9062
L21.1875 51.9062
L21.1875 42.6719
Q23.6875 47.8594 27.5312 50.5938
Q31.3906 53.3281 36.2812 53.3281
Q42.3281 53.3281 46.375 50.3125
Q50.4375 47.3125 51.8125 41.7969" id="DejaVuSerif-6d"/>
     </defs>
     <g transform="translate(453.3571875 628.8009375)scale(0.3 -0.3)">
      <use xlink:href="#DejaVuSerif-28"/>
      <use x="39.013671875" xlink:href="#DejaVuSerif-53"/>
      <use x="107.51953125" xlink:href="#DejaVuSerif-56"/>
      <use x="179.736328125" xlink:href="#DejaVuSerif-4d"/>
      <use x="282.12890625" xlink:href="#DejaVuSerif-29"/>
      <use x="321.142578125" xlink:href="#DejaVuSerif-20"/>
      <use x="352.9296875" xlink:href="#DejaVuSerif-46"/>
      <use x="422.314453125" xlink:href="#DejaVuSerif-75"/>
      <use x="486.71875" xlink:href="#DejaVuSerif-6d"/>
      <use x="581.54296875" xlink:href="#DejaVuSerif-65"/>
      <use x="640.72265625" xlink:href="#DejaVuSerif-72"/>
      <use x="688.525390625" xlink:href="#DejaVuSerif-61"/>
     </g>
    </g>
   </g>
  </g>
 </g>
 <defs>
  <clipPath id="p20bdb09884">
   <rect height="576.0" width="669.6" x="108.0" y="72.0"/>
  </clipPath>
 </defs>
</svg>
